<?xml version="1.0" encoding="utf-8"?>
<!-- Generator: Adobe Illustrator 18.0.0, SVG Export Plug-In . SVG Version: 6.00 Build 0)  -->
<!DOCTYPE svg PUBLIC "-//W3C//DTD SVG 1.1//EN" "http://www.w3.org/Graphics/SVG/1.1/DTD/svg11.dtd">
<svg version="1.1" id="Outlines" xmlns="http://www.w3.org/2000/svg" xmlns:xlink="http://www.w3.org/1999/xlink" x="0px" y="0px"
	 viewBox="0 0 166 79.2" enable-background="new 0 0 166 79.2" xml:space="preserve">
<g>
	
		<linearGradient id="SVGID_1_" gradientUnits="userSpaceOnUse" x1="60.0961" y1="31.9797" x2="113.0933" y2="31.9797" gradientTransform="matrix(-1 0 0 1 172.334 0)">
		<stop  offset="0" style="stop-color:#00B3F0"/>
		<stop  offset="1" style="stop-color:#0083B4"/>
	</linearGradient>
	<polygon fill="url(#SVGID_1_)" points="112.2,44.8 105.3,19.2 102.5,20.8 112.1,44.7 	"/>
	
		<linearGradient id="SVGID_2_" gradientUnits="userSpaceOnUse" x1="73.2408" y1="14.1809" x2="75.9868" y2="46.8577" gradientTransform="matrix(-1 0 0 1 172.334 0)">
		<stop  offset="0" style="stop-color:#00B3F0"/>
		<stop  offset="1" style="stop-color:#0083B4"/>
	</linearGradient>
	<polygon fill="url(#SVGID_2_)" points="102.5,20.8 99.6,13.4 94.9,17.1 98.5,23 	"/>
	
		<linearGradient id="SVGID_3_" gradientUnits="userSpaceOnUse" x1="65.3924" y1="14.8406" x2="67.5695" y2="40.7476" gradientTransform="matrix(-1 0 0 1 172.334 0)">
		<stop  offset="0" style="stop-color:#00B3F0"/>
		<stop  offset="1" style="stop-color:#004F78"/>
	</linearGradient>
	<polygon fill="url(#SVGID_3_)" points="112,44.6 112.1,44.7 102.5,20.8 98.5,23 	"/>
	
		<linearGradient id="SVGID_4_" gradientUnits="userSpaceOnUse" x1="85.6356" y1="1.5274" x2="86.4593" y2="45.1878" gradientTransform="matrix(-1 0 0 1 172.334 0)">
		<stop  offset="0.1101" style="stop-color:#2BC3EA"/>
		<stop  offset="1" style="stop-color:#0083B4"/>
	</linearGradient>
	<polygon fill="url(#SVGID_4_)" points="94.9,17.1 84.2,0 78,11.1 88.9,21.8 	"/>
	
		<linearGradient id="SVGID_5_" gradientUnits="userSpaceOnUse" x1="78.2393" y1="1.6661" x2="78.8834" y2="35.8019" gradientTransform="matrix(-1 0 0 1 172.334 0)">
		<stop  offset="0" style="stop-color:#00B3F0"/>
		<stop  offset="1" style="stop-color:#005D86"/>
	</linearGradient>
	<polygon fill="url(#SVGID_5_)" points="93.1,26 98.5,23 94.9,17.1 88.9,21.8 	"/>
	
		<linearGradient id="SVGID_6_" gradientUnits="userSpaceOnUse" x1="69.1343" y1="1.8385" x2="69.9187" y2="43.4152" gradientTransform="matrix(-1 0 0 1 172.334 0)">
		<stop  offset="0" style="stop-color:#00B3F0"/>
		<stop  offset="0.9345" style="stop-color:#081F41"/>
	</linearGradient>
	<polyline fill="url(#SVGID_6_)" points="93.1,26 98.5,23 112,44.6 93.1,26 	"/>
	<linearGradient id="SVGID_7_" gradientUnits="userSpaceOnUse" x1="75.6109" y1="7.118" x2="62.8107" y2="45.5186">
		<stop  offset="0" style="stop-color:#00B3F0"/>
		<stop  offset="1" style="stop-color:#006992"/>
	</linearGradient>
	<polygon fill="url(#SVGID_7_)" points="78,11.1 73.8,6.9 59.2,44.9 59.2,44.9 	"/>
	
		<linearGradient id="SVGID_8_" gradientUnits="userSpaceOnUse" x1="68.3914" y1="53.3365" x2="113.1407" y2="21.2158" gradientTransform="matrix(-1 0 0 1 172.334 0)">
		<stop  offset="0" style="stop-color:#00B3F0"/>
		<stop  offset="0.8614" style="stop-color:#005D86"/>
	</linearGradient>
	<polygon fill="url(#SVGID_8_)" points="59.3,44.9 88.9,21.8 78,11.1 59.2,44.9 	"/>
	
		<linearGradient id="SVGID_9_" gradientUnits="userSpaceOnUse" x1="69.0825" y1="54.3023" x2="103.4728" y2="29.6172" gradientTransform="matrix(-1 0 0 1 172.334 0)">
		<stop  offset="0" style="stop-color:#00B3F0"/>
		<stop  offset="1" style="stop-color:#081F41"/>
	</linearGradient>
	<polygon fill="url(#SVGID_9_)" points="93.1,26 88.9,21.8 59.3,44.9 60.1,44.5 	"/>
</g>
<g>
	<path fill="#FFFFFF" d="M12.1,53.6v2.6H6V59h5.8v2.6H6v5.2H3V53.6H12.1z"/>
	<path fill="#FFFFFF" d="M31.4,65c-1.3,1.3-3,2-4.9,2c-2,0-3.6-0.7-4.9-2c-1.3-1.3-2-2.9-2-4.9c0-1.9,0.7-3.6,2-4.9
		c1.3-1.3,3-2,4.9-2c2,0,3.6,0.7,4.9,2c1.3,1.3,2,2.9,2,4.9C33.5,62,32.8,63.7,31.4,65z M30.4,60.1c0-1.2-0.4-2.2-1.1-3
		c-0.8-0.8-1.7-1.3-2.8-1.3c-1.1,0-2,0.4-2.8,1.3c-0.8,0.8-1.1,1.8-1.1,3c0,1.2,0.4,2.2,1.1,3c0.8,0.8,1.7,1.2,2.8,1.2
		c1.1,0,2-0.4,2.8-1.2C30.1,62.3,30.4,61.3,30.4,60.1z"/>
	<path fill="#FFFFFF" d="M45.2,63.4c0.5,0.6,1.2,0.9,2,0.9c0.8,0,1.5-0.3,2-0.9c0.5-0.6,0.7-1.5,0.7-2.5v-7.3h3V61
		c0,1.9-0.5,3.4-1.6,4.4c-1.1,1-2.4,1.5-4.1,1.5c-1.7,0-3-0.5-4.1-1.6c-1.1-1-1.6-2.5-1.6-4.4v-7.4h3v7.3
		C44.4,61.9,44.7,62.8,45.2,63.4z"/>
	<path fill="#FFFFFF" d="M72.3,58c0,2.1-0.8,3.5-2.5,4.1l3.4,4.7h-3.6l-2.9-4.2h-2v4.2h-3V53.6h5c2.1,0,3.5,0.3,4.4,1
		C71.9,55.3,72.3,56.4,72.3,58z M68.8,59.5c0.4-0.3,0.5-0.8,0.5-1.6c0-0.7-0.2-1.2-0.6-1.5c-0.4-0.3-1-0.4-2-0.4h-2.2V60h2.2
		C67.7,60,68.4,59.9,68.8,59.5z"/>
	<path fill="#FFFFFF" d="M90.2,54.7c0.9,0.8,1.4,2,1.4,3.6c0,1.6-0.5,2.8-1.4,3.6c-1,0.8-2.4,1.1-4.4,1.1H84v3.7h-3V53.6h4.7
		C87.8,53.6,89.3,54,90.2,54.7z M88,60c0.4-0.4,0.5-1,0.5-1.7c0-0.8-0.2-1.3-0.7-1.6c-0.5-0.3-1.2-0.5-2.2-0.5H84v4.5h2
		C87,60.6,87.7,60.4,88,60z"/>
	<path fill="#FFFFFF" d="M110.7,65c-1.3,1.3-3,2-4.9,2c-2,0-3.6-0.7-4.9-2c-1.3-1.3-2-2.9-2-4.9c0-1.9,0.7-3.6,2-4.9
		c1.3-1.3,3-2,4.9-2c2,0,3.6,0.7,4.9,2c1.3,1.3,2,2.9,2,4.9C112.7,62,112.1,63.7,110.7,65z M109.7,60.1c0-1.2-0.4-2.2-1.1-3
		c-0.8-0.8-1.7-1.3-2.8-1.3s-2,0.4-2.8,1.3c-0.8,0.8-1.1,1.8-1.1,3c0,1.2,0.4,2.2,1.1,3c0.8,0.8,1.7,1.2,2.8,1.2s2-0.4,2.8-1.2
		C109.4,62.3,109.7,61.3,109.7,60.1z"/>
	<path fill="#FFFFFF" d="M120.9,53.6h3v13.3h-3V53.6z"/>
	<path fill="#FFFFFF" d="M142.1,53.6h3v13.3h-3l-6.3-8.3v8.3h-3V53.6h2.8l6.5,8.5V53.6z"/>
	<path fill="#FFFFFF" d="M159.6,56.1v10.7h-3V56.1h-3.8v-2.6h10.5v2.6H159.6z"/>
</g>
<g>
	<path fill="#FFFFFF" d="M81,72.4h4.5v1H82V75h3.1v1H82v1.6h3.5v1H81V72.4z"/>
	<path fill="#FFFFFF" d="M95.9,72.4h1l3.3,4.2v-4.2h1.1v6.1h-0.9L97,74.2v4.3h-1.1V72.4z"/>
	<path fill="#FFFFFF" d="M112.4,72.4h4.5v1h-3.4V75h3.1v1h-3.1v1.6h3.5v1h-4.6V72.4z"/>
	<path fill="#FFFFFF" d="M127.9,72.4h2.7c0.8,0,1.4,0.2,1.8,0.6c0.3,0.3,0.5,0.8,0.5,1.3v0c0,1-0.6,1.6-1.4,1.8l1.6,2.3h-1.3
		l-1.5-2.1H129v2.1h-1.1V72.4z M130.5,75.4c0.8,0,1.3-0.4,1.3-1v0c0-0.7-0.5-1-1.3-1H129v2H130.5z"/>
	<path fill="#FFFFFF" d="M142.1,75.5L142.1,75.5c0-1.7,1.3-3.2,3.1-3.2c1.1,0,1.7,0.3,2.3,0.8L147,74c-0.5-0.4-0.9-0.7-1.7-0.7
		c-1.1,0-2,1-2,2.2v0c0,1.3,0.8,2.2,2.1,2.2c0.6,0,1.1-0.2,1.5-0.5V76h-1.6v-0.9h2.6v2.6c-0.6,0.5-1.5,0.9-2.5,0.9
		C143.4,78.6,142.1,77.3,142.1,75.5z"/>
	<path fill="#FFFFFF" d="M159,76.1l-2.4-3.7h1.3l1.7,2.7l1.7-2.7h1.2l-2.4,3.7v2.4H159V76.1z"/>
</g>
<linearGradient id="SVGID_10_" gradientUnits="userSpaceOnUse" x1="93.123" y1="26.0153" x2="93.123" y2="26.0153">
	<stop  offset="0" style="stop-color:#00B3F0"/>
	<stop  offset="0.9345" style="stop-color:#081F41"/>
</linearGradient>
<path fill="url(#SVGID_10_)" d="M93.1,26"/>
</svg>
