<svg xmlns="http://www.w3.org/2000/svg" viewBox="0 0 41 37.52"><defs><style>.cls-1{fill:none;stroke:#429ebf;stroke-linecap:round;stroke-linejoin:round}</style></defs><title>icon_community</title><g id="Layer_2" data-name="Layer 2"><g id="Layer_3" data-name="Layer 3"><circle class="cls-1" cx="20.5" cy="4.85" r="4.35"/><circle class="cls-1" cx="32.67" cy="6.59" r="2.61"/><circle class="cls-1" cx="8.33" cy="6.59" r="2.61"/><path class="cls-1" d="M29.2 30.41c6.69.56 11.3 1.76 11.3 3.13 0 1.92-9 3.48-20 3.48s-20-1.56-20-3.48c0-1.37 4.58-2.56 11.23-3.13m13.12-2.08h-8.7V17a4.35 4.35 0 0 1 8.7 0zm10.43-3.48h-5.21v-9.57a2.61 2.61 0 1 1 5.22 0zm-24.35 0H5.72v-9.57a2.61 2.61 0 1 1 5.22 0z"/></g></g></svg>