<svg xmlns="http://www.w3.org/2000/svg" viewBox="0 0 50.24 50.2"><defs><style>.cls-1{fill:none;stroke:#0077a8;stroke-linecap:round;stroke-linejoin:round;stroke-width:2.09px}</style></defs><title>icon_connected</title><g id="Layer_2" data-name="Layer 2"><g id="Layer_3" data-name="Layer 3"><path class="cls-1" d="M35.58 14.68l6.5-6.45"/><circle class="cls-1" cx="44.99" cy="5.23" r="4.18"/><path class="cls-1" d="M37.59 37.61l4.42 4.45"/><circle class="cls-1" cx="45.01" cy="44.97" r="4.18"/><path class="cls-1" d="M14.66 14.68l-6.5-6.45"/><circle class="cls-1" cx="5.25" cy="5.23" r="4.18"/><path class="cls-1" d="M12.65 37.61l-4.42 4.45"/><circle class="cls-1" cx="5.23" cy="44.97" r="4.18"/><path class="cls-1" d="M34.53 24.05h6.28"/><circle class="cls-1" cx="44.99" cy="24.05" r="4.18"/><path class="cls-1" d="M15.71 24.05H9.43"/><circle class="cls-1" cx="5.25" cy="24.05" r="4.18"/><path class="cls-1" d="M21.59 28.63a3.53 3.53 0 1 0 3.53-3.53 3.53 3.53 0 1 1 3.53-3.53m-3.53 10.59v2.35m0-18.82v2.35"/></g></g></svg>