<svg xmlns="http://www.w3.org/2000/svg" viewBox="0 0 61.87 61.87"><defs><style>.cls-1{fill:none;stroke:#0077a8;stroke-linecap:round;stroke-linejoin:round;stroke-width:2.09px}</style></defs><title>icon_relationships</title><g id="Layer_2" data-name="Layer 2"><g id="Layer_3" data-name="Layer 3"><path class="cls-1" d="M10.14 16.92v3.61l-6.6 1.89A3.66 3.66 0 0 0 1 25.74V27h14.34"/><path class="cls-1" d="M17.94 16.84v3.7l6.6 1.89A3.66 3.66 0 0 1 27 25.74V27H12.74"/><ellipse class="cls-1" cx="14.04" cy="9.55" rx="7.8" ry="8.5"/><path class="cls-1" d="M21.76 8.06c-1.3 1.3-5 1.24-6.42-1.37A7.47 7.47 0 0 1 6.42 7.8m37.51 9.12v3.61l-6.6 1.89a3.66 3.66 0 0 0-2.5 3.31V27h14.3"/><path class="cls-1" d="M51.73 16.88v3.65l6.6 1.89a3.66 3.66 0 0 1 2.5 3.31V27h-14.3"/><ellipse class="cls-1" cx="47.83" cy="9.55" rx="7.8" ry="8.5"/><path class="cls-1" d="M55.5 8.05c-1.3 1.3-5 1.24-6.38-1.37A7.47 7.47 0 0 1 40.2 7.8M27 50.71v3.61l-6.6 1.89a3.66 3.66 0 0 0-2.5 3.31v1.3h14.33"/><path class="cls-1" d="M34.83 50.71v3.61l6.6 1.89a3.66 3.66 0 0 1 2.5 3.31v1.3h-14.3"/><ellipse class="cls-1" cx="30.93" cy="43.34" rx="7.8" ry="8.5"/><path class="cls-1" d="M38.61 41.77c-1.3 1.3-5 1.31-6.38-1.3a7.47 7.47 0 0 1-8.92 1.12m-13.17-9.36l6.5 6.5m35.09-6.5l-6.5 6.5"/></g></g></svg>