<svg xmlns="http://www.w3.org/2000/svg" viewBox="0 0 40.58 40.58"><defs><style>.cls-1{fill:none;stroke:#429ebf;stroke-linecap:round;stroke-linejoin:round}</style></defs><title>icon_operations</title><g id="Layer_2" data-name="Layer 2"><g id="Layer_3" data-name="Layer 3"><path class="cls-1" d="M31.48 22.87v-3A6.23 6.23 0 0 0 34.81 18l2.69 1.49L40.08 15l-2.59-1.49a8.48 8.48 0 0 0 0-3.74l2.57-1.49-2.61-4.42-2.64 1.49a6.23 6.23 0 0 0-3.33-1.88V.5h-5.17v3A6.23 6.23 0 0 0 23 5.35l-2.66-1.49-2.61 4.47 2.57 1.49a8.48 8.48 0 0 0 0 3.74L17.71 15l2.58 4.47L23 18a6.23 6.23 0 0 0 3.33 1.87v3zM14.27 40.08v-3a6.23 6.23 0 0 0 3.33-1.87l2.69 1.49 2.58-4.47-2.59-1.49a8.48 8.48 0 0 0 0-3.74l2.57-1.49-2.61-4.47-2.64 1.52a6.23 6.23 0 0 0-3.33-1.88v-3H9.1v3a6.23 6.23 0 0 0-3.33 1.88l-2.64-1.49-2.61 4.47L3.09 27a8.48 8.48 0 0 0 0 3.74L.5 32.26l2.58 4.47 2.69-1.49a6.23 6.23 0 0 0 3.33 1.87v3z"/><circle class="cls-1" cx="28.89" cy="11.69" r="3.44"/><circle class="cls-1" cx="11.68" cy="28.9" r="3.44"/></g></g></svg>