<svg xmlns="http://www.w3.org/2000/svg" viewBox="0 0 40.43 25"><defs><style>.cls-1{fill:none;stroke:#429ebf;stroke-linecap:round;stroke-linejoin:round}</style></defs><title>icon_selling</title><g id="Layer_2" data-name="Layer 2"><g id="Layer_3" data-name="Layer 3"><path class="cls-1" d="M39.93 5.64L29.64 12.5h-8.57m18.86-3.43l-10.29 6.86h-8.57m18.86-3.43l-10.29 6.86h-8.57m18.86-3.43l-10.29 6.86h-8.57"/><path class="cls-1" d="M21.07 24.5h-12V8.21L19.36.5h12L21.07 8.21V24.5zm-12-12H.5m8.57 3.43H.5m8.57 3.43H.5m8.57 3.43H.5"/><path class="cls-1" d="M29.07 2.21h10.86L29.64 9.07h-8.57m-12 0H.5l10.29-6.86h6.28m-2 18v1.72m0-13.72v1.72m-2.57 7.71a2.57 2.57 0 1 0 2.57-2.57 2.57 2.57 0 1 1 2.57-2.57"/></g></g></svg>