<svg xmlns="http://www.w3.org/2000/svg" viewBox="0 0 73.74 48.08"><defs><style>.cls-1{fill:#0077a8}</style></defs><title>icon_integrity</title><g id="Layer_2" data-name="Layer 2"><g id="Layer_3" data-name="Layer 3"><path class="cls-1" d="M49.7 9.41L31.05 3a7.22 7.22 0 0 0-5.44.33l-.94.45a5.28 5.28 0 0 1-4.08.22L19 3.41a1.7 1.7 0 0 0-.23-.12L9.22 0a.93.93 0 0 0-.69 0 .89.89 0 0 0-.45.51L.05 24a.91.91 0 0 0 .56 1.15l9.56 3.28a.73.73 0 0 0 .3.06.88.88 0 0 0 .39-.09.89.89 0 0 0 .45-.51L19 5.38l1 .35a7.16 7.16 0 0 0 5.5-.32l.93-.41a5.3 5.3 0 0 1 4-.26l18 6.19a4.27 4.27 0 0 1-1.5 2.76c-.88.6-2.14.63-3.75.08l-7.84-2.67a.93.93 0 0 0-.72.06 1 1 0 0 0-.45.57S33 16 29.38 18c-2.3 1.24-5.13 1.28-8.44.15a.9.9 0 1 0-.59 1.71 15.51 15.51 0 0 0 5 .91 10.11 10.11 0 0 0 4.89-1.19A12.31 12.31 0 0 0 35.61 13l7 2.39c2.19.76 4 .65 5.38-.3 2.23-1.54 2.34-4.71 2.36-4.85a.9.9 0 0 0-.6-.88zm-39.79 17l-7.85-2.68L9.49 2.06l7.64 2.61.18.09zm0 0"/><path class="cls-1" d="M73.65 22.8L62.75.65a.89.89 0 0 0-.51-.45.92.92 0 0 0-.69 0l-9.08 4.48A.91.91 0 0 0 52 5.89l10.61 21.6-3.55 3.25A42.48 42.48 0 0 1 49 37.6l-17.39 8.5a2 2 0 0 1-1.54.09 2.05 2.05 0 0 1-1.16-1 2 2 0 0 1-.09-1.54 2.05 2.05 0 0 1 1-1.16l9.71-4.76a.91.91 0 1 0-.79-1.63l-9.5 4.65-4.79 2.34a2 2 0 0 1-1.78-3.62l14-6.83a.9.9 0 1 0-.8-1.64l-10.33 5-3.62 1.77-1.71.83a2 2 0 1 1-1.78-3.6l1.72-.85 12.49-6.12a.9.9 0 0 0-.79-1.63l-8 3.93-4.47 2.19a2 2 0 0 1-1.54.09 2 2 0 0 1-1.16-1 2 2 0 0 1-.09-1.54 2.05 2.05 0 0 1 1-1.16l6.63-3.25a.91.91 0 1 0-.78-1.66l-6.63 3.25a3.84 3.84 0 0 0-1.95 2.21 3.81 3.81 0 0 0 1.8 4.61 3.83 3.83 0 0 0 2.69 6.55h.5a3.88 3.88 0 0 0 .33 2.31 3.82 3.82 0 0 0 3.44 2.14 3.73 3.73 0 0 0 1.68-.39l1.65-.82a3.65 3.65 0 0 0 .38 2.07 3.83 3.83 0 0 0 2.2 1.95 4 4 0 0 0 1.25.21 3.83 3.83 0 0 0 1.68-.39l17.38-8.5A44.1 44.1 0 0 0 60.33 32l3.94-3.62 9-4.38a.91.91 0 0 0 .42-1.21zm-9.51 3.68L54.07 5.91l7.46-3.64 10.05 20.58zm0 0"/></g></g></svg>