<svg xmlns="http://www.w3.org/2000/svg" viewBox="0 0 50.2 43.92"><defs><style>.cls-1{fill:none;stroke:#0077a8;stroke-linejoin:round;stroke-width:2.09px}</style></defs><title>icon_teamwork</title><g id="Layer_2" data-name="Layer 2"><path class="cls-1" d="M1 15.69V22c0 1.73.37 3.14 2.09 3.14v9.41h6.32V25.1c1.72 0 2.09-1.41 2.09-3.14v-6.27zm37.7 0V22c0 1.73.37 3.14 2.09 3.14v9.41h6.27V25.1c1.72 0 2.09-1.41 2.09-3.14v-6.27zm-20.92 0h14.64v10.46a4.2 4.2 0 0 1-4.18 4.18v12.55H22V30.33a4.2 4.2 0 0 1-4.18-4.18zM9.41 8.37a3.14 3.14 0 0 1-3.14 3.13 3.14 3.14 0 0 1-3.13-3.13 3.14 3.14 0 0 1 3.13-3.14 3.14 3.14 0 0 1 3.14 3.14zm37.65 0a3.14 3.14 0 0 1-3.14 3.14 3.14 3.14 0 0 1-3.14-3.14 3.14 3.14 0 0 1 3.14-3.14 3.14 3.14 0 0 1 3.14 3.14zm-16.73-2.1a5.23 5.23 0 0 1-5.23 5.23 5.23 5.23 0 0 1-5.23-5.23A5.23 5.23 0 0 1 25.1 1a5.23 5.23 0 0 1 5.23 5.23z" id="Layer_3" data-name="Layer 3"/></g></svg>