<svg xmlns="http://www.w3.org/2000/svg" viewBox="0 0 165.7 75.21"><defs><style>.cls-1{fill:#696c71}.cls-2{fill:#005d80}.cls-3{fill:#006980}.cls-4{fill:#0080ac}.cls-5{fill:#0095c7}.cls-6{fill:#007c86}.cls-7{fill:#083e5e}.cls-8{fill:#081f41}.cls-9{fill:#00809d}.cls-10{fill:#0086b7}.cls-11{fill:#2ba4cb}.cls-12{fill:#004f78}</style></defs><title>logo-stack</title><g id="Layer_2" data-name="Layer 2"><g id="Layer_3" data-name="Layer 3"><path class="cls-1" d="M0 49.23v13.74h8.92v-2.74H3.07v-11H0zm29.23 11.84a7.06 7.06 0 0 1-5.13 2 7.06 7.06 0 0 1-5.13-2 7.19 7.19 0 0 1 0-10.12 7.06 7.06 0 0 1 5.13-2 7.06 7.06 0 0 1 5.13 2 7.19 7.19 0 0 1 0 10.12m-1-5.05A4.5 4.5 0 0 0 27 52.88a3.89 3.89 0 0 0-5.8 0 4.74 4.74 0 0 0 0 6.26 3.91 3.91 0 0 0 5.8 0A4.46 4.46 0 0 0 28.18 56m20.29-6.77h3.07v13.74h-3.07l-6.54-8.61v8.61h-3.07V49.23h2.87l6.74 8.84v-8.84zM69.15 56h3.09v4.87a7.22 7.22 0 0 1-5.66 2.28 7 7 0 0 1-5.08-2 7.26 7.26 0 0 1 0-10.16 7 7 0 0 1 5.05-2 7.47 7.47 0 0 1 5.14 1.95l-1.59 2.3A6.11 6.11 0 0 0 68.43 52a4.58 4.58 0 0 0-1.68-.3 4 4 0 0 0-2.95 1.19 4.75 4.75 0 0 0 0 6.25 3.72 3.72 0 0 0 2.74 1.17 5.27 5.27 0 0 0 2.65-.61zm20.94-5.54a4.68 4.68 0 0 1 1.44 3.77A4.47 4.47 0 0 1 90 58a7.21 7.21 0 0 1-4.53 1.18h-1.78V63h-3.07V49.23h4.85a7 7 0 0 1 4.61 1.23m-2.25 5.4a2.64 2.64 0 0 0 .55-1.81 1.92 1.92 0 0 0-.72-1.69 4 4 0 0 0-2.23-.5h-1.74v4.62h2.06a2.73 2.73 0 0 0 2.08-.62m23.84 5.21a7.49 7.49 0 0 1-10.26 0 7.19 7.19 0 0 1 0-10.12 7.49 7.49 0 0 1 10.26 0 7.19 7.19 0 0 1 0 10.12m-1-5.05a4.5 4.5 0 0 0-1.18-3.13 3.89 3.89 0 0 0-5.8 0 4.74 4.74 0 0 0 0 6.26 3.91 3.91 0 0 0 5.8 0 4.46 4.46 0 0 0 1.13-3.15m11.03-6.77h3.07v13.74h-3.07zm22.06 0h3.07v13.74h-3.07l-6.54-8.61v8.61h-3.07V49.23h2.87l6.74 8.84v-8.84zm18.1 2.65v11.09h-3.07V51.88h-3.89v-2.65h10.85v2.65h-3.89zM80.54 68.85h1.17l1.91 2.96 1.91-2.96h1.17v6.27h-1.1v-4.5l-1.98 2.96h-.04l-1.96-2.94v4.48h-1.08v-6.27zm13.05 0h1.1v6.27h-1.1zm7.99 0h1.02l3.35 4.33v-4.33h1.09v6.27h-.92l-3.46-4.46v4.46h-1.08v-6.27zm12.28 0h4.65v.98h-3.55v1.64h3.15v.98h-3.15v1.68h3.59v.99h-4.69v-6.27zm11.21 0h2.79a2.52 2.52 0 0 1 1.81.63 1.89 1.89 0 0 1 .52 1.35 1.88 1.88 0 0 1-1.49 1.9l1.69 2.37h-1.31l-1.54-2.18h-1.38v2.18h-1.1zm2.72 3.15c.79 0 1.29-.41 1.29-1 0-.67-.48-1-1.3-1h-1.6v2zM139 68.81h1l2.76 6.31h-1.16l-.6-1.52h-3l-.64 1.51h-1.13zm1.58 3.82l-1.08-2.51-1.07 2.51zm8.47-3.78h1.1v5.26h3.29v1.01h-4.39v-6.27zm10.33 5.35l.66-.79a2.9 2.9 0 0 0 2 .81c.68 0 1.11-.32 1.11-.79 0-.45-.25-.69-1.41-1-1.33-.32-2.09-.72-2.09-1.87a1.92 1.92 0 0 1 2.14-1.82 3.47 3.47 0 0 1 2.27.79l-.59.83a2.85 2.85 0 0 0-1.7-.65c-.64 0-1 .33-1 .74 0 .48.29.7 1.5 1s2 .8 2 1.84c0 1.17-.92 1.87-2.24 1.87a3.86 3.86 0 0 1-2.61-1"/><path class="cls-2" d="M102.48 16.76L99.9 23l-.02.04.06-.03 11.03-5.23-8.49-1.02z"/><path class="cls-3" d="M99.89 23l2.59-6.24h-.03l-11.03 5.23L99.89 23zm-10.98 5.24l8.4 1 2.57-6.2-10.97 5.2z"/><path class="cls-4" d="M82.95 20.98l-2.59 6.24v.02l.03-.02L91.4 22l.01-.01-8.46-1.01z"/><path class="cls-5" d="M80.36 27.24v-.02l-8.48-1.02-2.59 6.24.07.01 11-5.21z"/><path class="cls-6" d="M93.99 15.75l-2.58 6.24-.01.01.02-.01 11.03-5.23-8.46-1.01z"/><path class="cls-7" d="M116.15 5.29l-2.56 6.19 10.93-5.18-8.37-1.01z"/><path class="cls-8" d="M111.64 37.51l2.57-6.21-10.97 5.2 8.4 1.01z"/><path class="cls-4" d="M80.39 27.22l-.03.02-2.58 6.22.1.01 10.91-5.17.03-.07-8.43-1.01z"/><path class="cls-6" d="M91.42 21.99l-.02.01-2.58 6.23-.03.07.12-.06 10.97-5.2.01-.04-8.47-1.01z"/><path class="cls-9" d="M91.4 22l-11.01 5.22 8.43 1.01L91.4 22z"/><path class="cls-10" d="M69.36 32.45l8.42 1.01 2.58-6.22-11 5.21z"/><path class="cls-2" d="M99.94 23.01l-.06.03-2.57 6.2-.01.02.03-.01 11.03-5.23-8.42-1.01z"/><path class="cls-8" d="M108.39 24v.02l8.42 1.01 2.59-6.25h-.01l-11 5.22z"/><path class="cls-7" d="M107.64 30.48zm.75-6.46l-2.59 6.24 11-5.22.01-.01-8.42-1.01z"/><path class="cls-8" d="M105.8 30.26l8.42 1.01 2.58-6.23-11 5.22z"/><path class="cls-7" d="M103.21 36.5h.03l10.97-5.2.01-.03-8.42-1.01-2.59 6.24z"/><path class="cls-11" d="M52.39 30.42l-2.57 6.21 10.98-5.2-8.41-1.01z"/><path class="cls-12" d="M105.8 30.26l-11.03 5.23 8.44 1.01 2.59-6.24z"/><path class="cls-10" d="M38.79 41.85l10.97-5.19-8.4-1.01-2.57 6.2z"/><path class="cls-5" d="M52.39 30.42h-.01l-11.02 5.23 8.4 1.01.06-.03 2.57-6.21z"/><path class="cls-8" d="M116.19 5.21l-.16.07.12.02 8.37.99.05.01.01-.04 2.6-6.26-10.99 5.21z"/><path class="cls-10" d="M52.38 30.42l-8.43-1.01-2.59 6.24 11.02-5.23z"/><path class="cls-12" d="M102.48 16.76l8.49 1.02 2.59-6.24-.08-.01-10.99 5.21-.01.02z"/><path class="cls-7" d="M110.97 17.78L108.39 24l11-5.22-8.42-1z"/><path class="cls-8" d="M119.39 18.78h.01l2.57-6.22-11 5.22 8.42 1z"/><path class="cls-12" d="M99.94 23.01l8.42 1.01h.03V24l2.58-6.22-11.03 5.23z"/><path class="cls-11" d="M71.85 26.2l-11.04 5.23 8.37 1 .11.01 2.59-6.24.01-.02-.04.02z"/><path class="cls-6" d="M97.31 29.24l-8.4-1-.12.06-2.56 6.17.07.01 11-5.22.01-.02z"/><path class="cls-12" d="M97.33 29.25l8.47 1.01 2.59-6.24h-.03l-11.03 5.23z"/><path class="cls-3" d="M86.3 34.48l8.42 1 2.58-6.22-11 5.22z"/><path class="cls-2" d="M97.3 29.26l-2.58 6.22.05.01 11.03-5.23-8.47-1.01-.03.01z"/><path class="cls-7" d="M113.56 11.54l-2.59 6.24 11-5.22.01-.02-8.42-1z"/><path class="cls-9" d="M93.94 15.74l-10.97 5.19-.08.04.06.01 8.46 1.01 2.58-6.24-.05-.01z"/><path class="cls-10" d="M80.36 27.22l2.59-6.24-.05-.01-11.01 5.21-.01.02 8.48 1.02z"/><path class="cls-2" d="M104.33 16.98l.01-.02-.04.02h.03zm.74-6.46l-2.58 6.22 10.99-5.21-8.41-1.01z"/><path class="cls-12" d="M116.03 5.28l-10.94 5.18-.02.06 8.41 1.01.08.01.03-.06 2.56-6.19-.12-.01z"/><path class="cls-9" d="M77.89 33.47l8.34 1 2.56-6.17-10.9 5.17z"/><path class="cls-8" d="M121.98 12.54l2.59-6.24h-.06l-10.92 5.18-.03.06 8.42 1z"/><path class="cls-3" d="M104.98 10.51l-10.97 5.2-.07.03.05.01 8.46 1.01.04-.02 2.58-6.22.02-.06-.11.05z"/></g></g></svg>