<svg xmlns="http://www.w3.org/2000/svg" viewBox="0 0 239.21 31.53"><defs><style>.cls-1{fill:#696c71}.cls-2{fill:none}.cls-3{fill:#005d84}.cls-4{fill:#006990}.cls-5{fill:#0099ca}.cls-6{fill:#00b2e4}.cls-7{fill:#007ca3}.cls-8{fill:#083e5e}.cls-9{fill:#081e41}.cls-10{fill:#008fbb}.cls-11{fill:#00a3d4}.cls-12{fill:#2ac1e8}.cls-13{fill:#004f78}</style></defs><title>logo-horiz-black</title><g id="Layer_2" data-name="Layer 2"><g id="Layer_3" data-name="Layer 3"><path class="cls-1" d="M0 15.76V.35h3.44V12.7H10v3.06zm32.78-2.13A7.92 7.92 0 0 1 27 15.92a7.92 7.92 0 0 1-5.75-2.28A7.61 7.61 0 0 1 18.93 8a7.61 7.61 0 0 1 2.34-5.68A7.91 7.91 0 0 1 27 0a7.92 7.92 0 0 1 5.75 2.28A7.61 7.61 0 0 1 35.11 8a7.61 7.61 0 0 1-2.33 5.63zM31.61 8a5 5 0 0 0-1.32-3.52 4.36 4.36 0 0 0-6.5 0A5 5 0 0 0 22.46 8a5 5 0 0 0 1.32 3.5 4.38 4.38 0 0 0 6.5 0A5 5 0 0 0 31.61 8zM54.36.35h3.44v15.41h-3.44L47 6.11v9.65h-3.42V.35h3.22l7.56 9.92zm23.19 7.56H81v5.47a8.09 8.09 0 0 1-6.35 2.56A7.84 7.84 0 0 1 69 13.69 7.6 7.6 0 0 1 66.66 8 7.67 7.67 0 0 1 69 2.29 7.81 7.81 0 0 1 74.67 0a8.38 8.38 0 0 1 5.76 2.18l-1.78 2.58a6.82 6.82 0 0 0-1.91-1.24 5.13 5.13 0 0 0-1.88-.34 4.51 4.51 0 0 0-3.31 1.33A4.73 4.73 0 0 0 70.21 8a4.77 4.77 0 0 0 1.29 3.49 4.16 4.16 0 0 0 3.07 1.31 5.91 5.91 0 0 0 3-.68zM101 1.73A5.25 5.25 0 0 1 102.65 6a5 5 0 0 1-1.65 4.14 8.09 8.09 0 0 1-5.08 1.32h-2v4.3h-3.5V.35h5.44q3.55 0 5.14 1.38zm-2.5 6.06a3 3 0 0 0 .62-2 2.15 2.15 0 0 0-.8-1.9 4.42 4.42 0 0 0-2.5-.56h-2v5.16h2.31a3.07 3.07 0 0 0 2.37-.7zm26.73 5.84a8.4 8.4 0 0 1-11.51 0A7.61 7.61 0 0 1 111.39 8a7.61 7.61 0 0 1 2.34-5.68 8.39 8.39 0 0 1 11.51 0A7.62 7.62 0 0 1 127.56 8a7.62 7.62 0 0 1-2.33 5.63zM124.06 8a5 5 0 0 0-1.32-3.52 4.36 4.36 0 0 0-6.5 0A5 5 0 0 0 114.91 8a5 5 0 0 0 1.32 3.5 4.38 4.38 0 0 0 6.5 0 5 5 0 0 0 1.33-3.5zM136.43.35h3.44v15.41h-3.44zm24.74 0h3.44v15.41h-3.44l-7.34-9.65v9.65h-3.44V.35h3.22l7.56 9.92zm20.29 2.98v12.43H178V3.33h-4.36v-3h12.17v3zM70.72 22.36H72l2.14 3.32 2.14-3.32h1.32v7h-1.21v-5l-2.22 3.31-2.2-3.29v5h-1.25zm14.63 0h1.24v7h-1.24zm8.96 0h1.15l3.77 4.86v-4.86h1.21v7h-1l-3.88-5v5h-1.25zm13.78 0h5.21v1.1h-4v1.83h3.52v1.1h-3.52v1.89h4v1.1h-5.26zm12.57 0h3.13a2.83 2.83 0 0 1 2 .7 2.12 2.12 0 0 1 .58 1.52 2.11 2.11 0 0 1-1.67 2.13l1.9 2.66h-1.47l-1.73-2.45h-1.55v2.45h-1.23zm3 3.48c.88 0 1.45-.46 1.45-1.18 0-.75-.54-1.16-1.46-1.16h-1.8v2.36zm12.6-3.53h1.15l3.09 7.08h-1.3l-.71-1.7h-3.32l-.72 1.7h-1.26zM138 26.6l-1.21-2.81-1.2 2.81zm9.54-4.24h1.24v5.9h3.69v1.12h-4.93zm11.59 6l.74-.88a3.26 3.26 0 0 0 2.22.91c.76 0 1.25-.36 1.25-.88 0-.5-.28-.77-1.59-1.07-1.5-.36-2.34-.8-2.34-2.1a2.15 2.15 0 0 1 2.4-2 3.9 3.9 0 0 1 2.55.88l-.66.93a3.19 3.19 0 0 0-1.91-.72c-.72 0-1.14.37-1.14.83 0 .54.32.78 1.68 1.1s2.25.89 2.25 2.06c0 1.32-1 2.1-2.51 2.1a4.33 4.33 0 0 1-2.94-1.16z"/><path class="cls-2" d="M202.44 25.34l.1-.04-.08-.01-.02.05zm6.36.7v.01l6.26.75v-.01l-6.26-.75zm26.56-16.31h-.02v.01l.02-.01zM196.2 24.54l6.26.75-6.26-.75zm-.07.03l.07-.03-.05-.01-.02.04zm18.93 2.22v.01h.04l-.04-.01zm.04.01l6.28.75-6.28-.75zm-18.95-2.27l.05.01-.05-.01z"/><path class="cls-2" d="M215.05 26.82l.05-.02h-.04l-.01.02zm-12.51-1.52l6.21.74-6.21-.74zm32.85-15.57l.01-.02-.04.02h.03z"/><circle class="cls-2" cx="183.57" cy="23.03" transform="rotate(-76.52 183.566 23.03)"/><path class="cls-2" d="M183.58 23.02l-.01.01h.01v-.01zm12.49 1.5l.08.01-.08-.01zm6.39.77l.08.01-.08-.01zm6.29.75l.05.01v-.01h-.05z"/><path class="cls-2" d="M208.74 26.07l.06-.02-.05-.01-.01.03zm12.63 1.49l.03-.01h-.02l-.01.01zm10.17-8.54l.01-.02-.04.02h.03zm-10.16 8.53h.02-.02zm8.24-3.89v-.01l-.02.01h.02zm-.02 0h-.03l-.01.02.04-.02zm-46.03-.63l-6.27-.75h-.01l6.28.75z"/><path class="cls-2" d="M231.51 19.02l-.01-.01-.01.01h.02z"/><path class="cls-3" d="M220.84 12.87l-1.93 4.64-.01.03.05-.03 8.21-3.89-6.32-.75z"/><path class="cls-4" d="M218.91 17.51l1.93-4.64-.02-.01-8.21 3.89 6.3.76zm-8.16 3.9l6.24.74 1.91-4.61-8.15 3.87z"/><path class="cls-5" d="M206.31 16l-1.92 4.64-.01.02.03-.01 8.18-3.89.01-.01-6.29-.75z"/><path class="cls-6" d="M204.38 20.66l.01-.02-6.32-.75-1.92 4.64.05.01 8.18-3.88z"/><path class="cls-7" d="M214.52 12.11l-1.92 4.64-.01.01.02-.01 8.21-3.89-6.3-.75z"/><path class="cls-8" d="M231.01 4.34l-1.91 4.6 8.13-3.86-6.22-.74z"/><path class="cls-9" d="M227.65 28.3l1.91-4.62-8.16 3.87 6.25.75z"/><path class="cls-5" d="M204.41 20.65l-.03.01-1.92 4.63.08.01 8.11-3.85.03-.05-6.27-.75z"/><path class="cls-7" d="M212.61 16.75l-.02.01-1.91 4.64-.03.05.1-.04 8.15-3.87.01-.03-6.3-.76z"/><path class="cls-10" d="M212.59 16.76l-8.18 3.89 6.27.75 1.91-4.64z"/><path class="cls-11" d="M196.2 24.54l6.26.75 1.92-4.63-8.18 3.88z"/><path class="cls-3" d="M218.95 17.51l-.05.03-1.91 4.61v.01l.01-.01 8.21-3.89-6.26-.75z"/><path class="cls-9" d="M225.24 18.25l-.01.01 6.27.75 1.92-4.64h-.01l-8.17 3.88z"/><path class="cls-8" d="M224.68 23.07zm.55-4.81l-1.92 4.65 8.18-3.89.01-.01-6.27-.75z"/><path class="cls-9" d="M223.31 22.91l6.26.75 1.92-4.64-8.18 3.89z"/><path class="cls-8" d="M221.38 27.55h.02l8.16-3.87.01-.02-6.26-.75-1.93 4.64z"/><path class="cls-12" d="M183.58 23.03l-1.92 4.62 8.17-3.87-6.25-.75z"/><path class="cls-13" d="M223.3 22.91l-8.2 3.89 6.28.75 1.93-4.64h-.01z"/><path class="cls-11" d="M173.46 31.53l8.16-3.86-6.25-.75-1.91 4.61z"/><path class="cls-6" d="M183.58 23.03h-.01l-8.2 3.89 6.25.75.04-.02 1.92-4.62z"/><path class="cls-9" d="M231.03 4.27l-.12.06.1.01 6.22.74.04.01.01-.03L239.21.4l-8.18 3.87z"/><path class="cls-11" d="M183.57 23.03l-6.28-.75-1.92 4.64 8.2-3.89z"/><path class="cls-13" d="M220.84 12.87l6.32.75 1.92-4.64-.06-.01-8.18 3.88v.02z"/><path class="cls-8" d="M227.16 13.62l-1.92 4.63 8.17-3.88-6.25-.75z"/><path class="cls-9" d="M233.41 14.37h.01l1.92-4.63-8.18 3.88 6.25.75z"/><path class="cls-13" d="M218.95 17.51l6.26.75h.02l.01-.01 1.92-4.63-8.21 3.89z"/><path class="cls-12" d="M198.05 19.89l-8.21 3.89 6.23.74.08.01 1.92-4.64.01-.01-.03.01z"/><path class="cls-7" d="M216.99 22.15l-6.24-.74-.1.04-1.9 4.59h.05l8.19-3.88v-.01z"/><path class="cls-13" d="M217 22.15l6.3.76h.01l1.92-4.65h-.02L217 22.15z"/><path class="cls-4" d="M208.8 26.04l6.26.75 1.93-4.63-8.19 3.88z"/><path class="cls-3" d="M216.99 22.16l-1.93 4.63.04.01 8.2-3.89-6.3-.76-.01.01z"/><path class="cls-8" d="M229.08 8.98l-1.92 4.64 8.18-3.88v-.01l-6.26-.75z"/><path class="cls-10" d="M214.48 12.11l-8.16 3.86-.05.03h.04l6.29.75 1.92-4.64h-.04z"/><path class="cls-11" d="M204.39 20.64l1.92-4.64h-.04l-8.19 3.88-.01.01 6.32.75z"/><path class="cls-3" d="M222.21 13.03l.01-.01-.03.01h.02zm.55-4.81l-1.92 4.63 8.18-3.88-6.26-.75z"/><path class="cls-13" d="M230.91 4.33l-8.13 3.85-.02.04 6.26.75.06.01.02-.04 1.91-4.6-.1-.01z"/><path class="cls-10" d="M202.54 25.3l6.21.74 1.9-4.59-8.11 3.85z"/><path class="cls-9" d="M235.34 9.73l1.93-4.64-.04-.01-8.13 3.86-.02.04 6.26.75z"/><path class="cls-4" d="M222.7 8.22l-8.16 3.86-.06.03h.04l6.3.75.02-.01 1.92-4.63.02-.04-.08.04z"/></g></g></svg>