<svg xmlns="http://www.w3.org/2000/svg" viewBox="0 0 214.21 28.24"><defs><style>.cls-1{fill:#fff}.cls-2{fill:none}.cls-3{fill:#005d84}.cls-4{fill:#006990}.cls-5{fill:#0099ca}.cls-6{fill:#00b2e4}.cls-7{fill:#007ca3}.cls-8{fill:#083e5e}.cls-9{fill:#081e41}.cls-10{fill:#008fbb}.cls-11{fill:#00a3d4}.cls-12{fill:#2ac1e8}.cls-13{fill:#004f78}</style></defs><title>logo-horiz-white</title><g id="Layer_2" data-name="Layer 2"><g id="Layer_3" data-name="Layer 3"><path class="cls-1" d="M0 14.11V.32h3.08v11.05H9v2.74zm29.35-1.9a7.09 7.09 0 0 1-5.15 2 7.09 7.09 0 0 1-5.15-2A6.82 6.82 0 0 1 17 7.13 6.82 6.82 0 0 1 19 2a7.09 7.09 0 0 1 5.2-2 7.09 7.09 0 0 1 5.15 2 6.82 6.82 0 0 1 2.09 5.08 6.82 6.82 0 0 1-2.09 5.13zm-1-5.07A4.51 4.51 0 0 0 27.12 4a3.9 3.9 0 0 0-5.82 0 4.52 4.52 0 0 0-1.18 3.15 4.48 4.48 0 0 0 1.18 3.14 3.92 3.92 0 0 0 5.82 0 4.48 4.48 0 0 0 1.18-3.15zM48.68.32h3.08v13.8h-3.08l-6.57-8.65v8.65H39V.32h2.88l6.8 8.88zm20.76 6.77h3.1V12a7.24 7.24 0 0 1-5.68 2.29 7 7 0 0 1-5.1-2 6.8 6.8 0 0 1-2.06-5.08 6.87 6.87 0 0 1 2.1-5.12A7 7 0 0 1 66.87 0 7.5 7.5 0 0 1 72 2l-1.6 2.31a6.11 6.11 0 0 0-1.71-1.11A4.59 4.59 0 0 0 67 2.84a4 4 0 0 0-3 1.19 4.24 4.24 0 0 0-1.2 3.15 4.27 4.27 0 0 0 1.2 3.13 3.73 3.73 0 0 0 2.75 1.17 5.29 5.29 0 0 0 2.66-.61zm21.03-5.54a4.7 4.7 0 0 1 1.45 3.79 4.49 4.49 0 0 1-1.49 3.74 7.24 7.24 0 0 1-4.55 1.18H84v3.85h-3V.32h4.87a7.08 7.08 0 0 1 4.6 1.23zM88.21 7a2.66 2.66 0 0 0 .55-1.82A1.92 1.92 0 0 0 88 3.46 4 4 0 0 0 85.8 3H84v4.6h2.07a2.75 2.75 0 0 0 2.14-.6zm23.93 5.21a7.52 7.52 0 0 1-10.3 0 6.82 6.82 0 0 1-2.09-5.08A6.82 6.82 0 0 1 101.84 2a7.52 7.52 0 0 1 10.3 0 6.82 6.82 0 0 1 2.09 5.08 6.82 6.82 0 0 1-2.09 5.13zm-1-5.07A4.52 4.52 0 0 0 109.91 4a3.9 3.9 0 0 0-5.82 0 4.51 4.51 0 0 0-1.19 3.15 4.47 4.47 0 0 0 1.19 3.14 3.92 3.92 0 0 0 5.82 0 4.48 4.48 0 0 0 1.19-3.15zM122.17.32h3.08v13.8h-3.08zm22.16 0h3.08v13.8h-3.08l-6.57-8.65v8.65h-3.08V.32h2.88l6.77 8.88zM162.5 3v11.11h-3.08V3h-3.91V.32h10.9V3zM63.33 20h1.18l1.92 3 1.92-3h1.18v6.29h-1.12V21.8l-2 3-2-2.95v4.5h-1.08zm13.1 0h1.11v6.29h-1.11zm8.02 0h1l3.37 4.35V20h1.09v6.29H89l-3.47-4.48v4.48h-1.08zm12.34 0h4.67v1H97.9v1.64h3.16v1H97.9v1.69h3.6v1h-4.71zm11.26 0h2.81a2.54 2.54 0 0 1 1.82.63 1.9 1.9 0 0 1 .52 1.36 1.89 1.89 0 0 1-1.49 1.91l1.7 2.38h-1.31l-1.55-2.19h-1.38v2.19h-1.11zm2.72 3.12c.79 0 1.29-.41 1.29-1.05 0-.67-.49-1-1.3-1h-1.61v2.11zM122 20h1l2.77 6.34h-1.17l-.6-1.54h-3l-.65 1.52h-1.13zm1.58 3.84l-1.09-2.52-1.08 2.52zm8.55-3.84h1.11v5.29h3.31v1h-4.42zm10.37 5.4l.67-.79a2.92 2.92 0 0 0 2 .82c.68 0 1.12-.32 1.12-.79 0-.45-.25-.69-1.42-1-1.34-.32-2.1-.72-2.1-1.88a1.92 1.92 0 0 1 2.15-1.83 3.49 3.49 0 0 1 2.28.79l-.59.84a2.86 2.86 0 0 0-1.71-.65c-.65 0-1 .33-1 .75 0 .49.29.7 1.5 1s2 .8 2 1.84c0 1.18-.93 1.88-2.25 1.88a3.88 3.88 0 0 1-2.65-.98z"/><path class="cls-2" d="M181.28 22.7l.09-.05-.07-.01-.02.06zm5.7.62l5.61.67-5.61-.67zm23.79-14.61h-.02v.01l.02-.01z"/><path class="cls-2" d="M175.7 21.97l5.6.67h.01l-5.61-.67z"/><path class="cls-2" d="M175.64 22l.06-.03h-.05l-.01.03zm16.95 1.99l.03.01-.03-.01zm.03.01l5.63.67-5.63-.67zm-16.97-2.03h.05-.05zm16.93 2.05l.04-.02-.03-.01-.01.03zm-11.21-1.37l5.57.67-5.56-.67h-.01zm29.42-13.93l.01-.02-.03.01.02.01z"/><circle class="cls-2" cx="164.39" cy="20.62" transform="rotate(-76.52 164.383 20.623)"/><path class="cls-2" d="M164.4 20.62h-.01.01zm11.18 1.34l.07.01-.07-.01zm5.73.68h-.01l.07.01h.01l-.07-.01zm5.63.68h.04-.04zm-.02.03l.06-.03h-.04l-.02.03zm11.32 1.33l.02-.01h-.01l-.01.01zm9.11-7.65v-.02l-.03.02h.03zm-9.1 7.64h.01-.01zm7.37-3.48l.01-.01-.02.01h.01z"/><path class="cls-2" d="M205.61 21.19l-.03-.01-.01.03.04-.02zm-41.22-.57l-5.62-.67 5.62.67zm42.93-3.59h-.02v.01l.02-.01z"/><path class="cls-3" d="M197.76 11.52l-1.72 4.16-.01.02.04-.02 7.35-3.48-5.66-.68z"/><path class="cls-4" d="M196.04 15.68l1.72-4.16h-.02L190.39 15l5.65.68zm-7.32 3.49l5.59.67 1.72-4.14-7.31 3.47z"/><path class="cls-5" d="M184.75 14.33l-1.72 4.16-.01.01.02-.01 7.34-3.48V15l-5.63-.67z"/><path class="cls-6" d="M183.02 18.5l.01-.01-5.66-.68-1.72 4.16h.05l7.32-3.47z"/><path class="cls-7" d="M192.11 10.85L190.38 15v.01l.01-.01 7.35-3.48-5.63-.67z"/><path class="cls-8" d="M206.87 3.88L205.16 8l7.28-3.45-5.57-.67z"/><path class="cls-9" d="M203.86 25.34l1.71-4.13-7.31 3.46 5.6.67z"/><path class="cls-5" d="M183.04 18.49l-.02.01-1.71 4.14.07.01 7.26-3.44.02-.05-5.62-.67z"/><path class="cls-7" d="M190.39 15l-.01.01-1.72 4.15-.02.05.08-.04 7.31-3.47.01-.02-5.65-.68z"/><path class="cls-10" d="M190.38 15.01l-7.34 3.48 5.62.67 1.72-4.15z"/><path class="cls-11" d="M175.7 21.97l5.61.67 1.71-4.14-7.32 3.47z"/><path class="cls-3" d="M196.07 15.68l-.04.02-1.72 4.14v.01l.02-.01 7.34-3.49-5.6-.67z"/><path class="cls-9" d="M201.7 16.34l-.01.02 5.61.67 1.73-4.16h-.01l-7.32 3.47z"/><path class="cls-8" d="M201.2 20.66zm.49-4.3l-1.72 4.15 7.33-3.47v-.01l-5.61-.67z"/><path class="cls-9" d="M199.97 20.51l5.61.67 1.72-4.14-7.33 3.47z"/><path class="cls-8" d="M198.25 24.67h.01l7.31-3.46.01-.03-5.61-.67-1.72 4.16z"/><path class="cls-12" d="M164.4 20.62l-1.72 4.14 7.32-3.47-5.6-.67z"/><path class="cls-13" d="M199.97 20.51L192.62 24l5.63.67 1.72-4.16z"/><path class="cls-11" d="M155.33 28.24l7.31-3.46-5.6-.67-1.71 4.13z"/><path class="cls-6" d="M164.4 20.62h-.01l-7.34 3.48-.01.01 5.6.67.04-.02 1.72-4.14z"/><path class="cls-9" d="M206.89 3.82l-.11.05.09.01 5.57.67h.03l.02-.02 1.72-4.17-7.32 3.46z"/><path class="cls-11" d="M164.39 20.62l-5.62-.67-1.72 4.15 7.34-3.48z"/><path class="cls-13" d="M197.76 11.52l5.66.68 1.72-4.16h-.05l-7.33 3.47v.01z"/><path class="cls-8" d="M203.42 12.2l-1.72 4.14 7.32-3.47-5.6-.67z"/><path class="cls-9" d="M209.02 12.87h.01l1.72-4.15-7.33 3.48 5.6.67z"/><path class="cls-13" d="M196.07 15.68l5.6.67.02.01.01-.02 1.72-4.14-7.35 3.48z"/><path class="cls-12" d="M177.36 17.81L170 21.29l5.58.67.07.01 1.72-4.16.01-.01-.02.01z"/><path class="cls-7" d="M194.31 19.84l-5.59-.67-.08.04-1.7 4.11h.04l7.33-3.47v-.01z"/><path class="cls-13" d="M194.33 19.84l5.64.67 1.72-4.15-.02-.01-7.34 3.49z"/><path class="cls-4" d="M186.98 23.32l5.61.67 1.72-4.14-7.33 3.47z"/><path class="cls-3" d="M194.31 19.85l-1.72 4.14.03.01 7.35-3.49-5.64-.67-.02.01z"/><path class="cls-8" d="M205.14 8.04l-1.72 4.16 7.33-3.48v-.01l-5.61-.67z"/><path class="cls-10" d="M192.07 10.84l-7.31 3.46-.05.02.04.01 5.63.67 1.73-4.15-.04-.01z"/><path class="cls-11" d="M183.03 18.49l1.72-4.16-.04-.01-7.33 3.48-.01.01 5.66.68z"/><path class="cls-3" d="M198.99 11.67l.01-.02-.03.02h.02zm.49-4.31l-1.72 4.15 7.33-3.47-5.61-.68z"/><path class="cls-13" d="M206.78 3.87l-7.28 3.45-.02.04 5.61.68h.05l.02-.04 1.71-4.12-.09-.01z"/><path class="cls-10" d="M181.38 22.65l5.56.67 1.7-4.11-7.26 3.44z"/><path class="cls-9" d="M210.75 8.71l1.72-4.16h-.03L205.16 8l-.02.04 5.61.67z"/><path class="cls-4" d="M199.43 7.36l-7.31 3.46-.05.02.04.01 5.63.67.02-.01 1.72-4.15.02-.04-.07.04z"/></g></g></svg>