<svg xmlns="http://www.w3.org/2000/svg" viewBox="0 0 198.29 90"><defs><style>.cls-1{fill:#fff}.cls-2{fill:#005d80}.cls-3{fill:#006980}.cls-4{fill:#0080ac}.cls-5{fill:#0095c7}.cls-6{fill:#007c86}.cls-7{fill:#083e5e}.cls-8{fill:#081f41}.cls-9{fill:#00809d}.cls-10{fill:#0086b7}.cls-11{fill:#2ba4cb}.cls-12{fill:#004f78}</style></defs><title>logo-stack-white</title><g id="Layer_2" data-name="Layer 2"><g id="Layer_1-2" data-name="Layer 1"><path class="cls-1" d="M0 58.91v16.44h10.68v-3.27H3.67V58.91H0zm35 14.17a8.45 8.45 0 0 1-6.14 2.43 8.45 8.45 0 0 1-6.14-2.43A8.61 8.61 0 0 1 22.7 61a8.45 8.45 0 0 1 6.14-2.43A8.45 8.45 0 0 1 35 61a8.61 8.61 0 0 1 0 12.11m-1.25-6a5.38 5.38 0 0 0-1.41-3.75 4.65 4.65 0 0 0-6.94 0 5.68 5.68 0 0 0 0 7.49 4.68 4.68 0 0 0 6.94 0A5.34 5.34 0 0 0 33.73 67m24.28-8.09h3.67v16.44h-3.67l-7.84-10.3v10.3h-3.66V58.91h3.43l8.07 10.59V58.91zM82.75 67h3.69v5.83a8.64 8.64 0 0 1-6.77 2.73 8.36 8.36 0 0 1-6.08-2.4 8.69 8.69 0 0 1 0-12.16 8.33 8.33 0 0 1 6-2.45 8.94 8.94 0 0 1 6.15 2.33l-1.91 2.75a7.31 7.31 0 0 0-2-1.33 5.48 5.48 0 0 0-2-.36 4.82 4.82 0 0 0-3.53 1.42 5.68 5.68 0 0 0-.06 7.48 4.45 4.45 0 0 0 3.28 1.4 6.31 6.31 0 0 0 3.18-.73zm25.05-6.62a5.6 5.6 0 0 1 1.73 4.52 5.35 5.35 0 0 1-1.78 4.46 8.63 8.63 0 0 1-5.42 1.41h-2.19v4.59h-3.66V58.91h5.81q3.79 0 5.52 1.47m-2.69 6.47a3.16 3.16 0 0 0 .66-2.16 2.29 2.29 0 0 0-.86-2 4.72 4.72 0 0 0-2.67-.6h-2.09v5.53h2.47a3.27 3.27 0 0 0 2.49-.74m28.51 6.2a9 9 0 0 1-12.28 0 8.61 8.61 0 0 1 0-12.11 9 9 0 0 1 12.28 0 8.61 8.61 0 0 1 0 12.11m-1.25-6a5.38 5.38 0 0 0-1.38-3.79 4.65 4.65 0 0 0-6.94 0 5.67 5.67 0 0 0 0 7.49 4.68 4.68 0 0 0 6.94 0 5.34 5.34 0 0 0 1.38-3.78m13.2-8.09h3.67v16.44h-3.67zm26.4 0h3.67v16.44h-3.67l-7.83-10.3v10.3h-3.67V58.91h3.43l8.07 10.59V58.91zm21.65 3.18v13.26h-3.66V62.09h-4.66v-3.18h12.98v3.18h-4.66zm-97.25 20.3h1.41l2.28 3.55 2.28-3.55h1.4v7.5h-1.31v-5.38l-2.37 3.54h-.04l-2.35-3.52v5.36h-1.3v-7.5zm15.62 0h1.32v7.5H112zm9.56 0h1.22l4.02 5.19v-5.19h1.29v7.5h-1.1l-4.14-5.33v5.33h-1.29v-7.5zm14.7 0h5.56v1.18h-4.24v1.95h3.76v1.18h-3.76v2.02h4.29v1.17h-5.61v-7.5zm13.42 0H153a3 3 0 0 1 2.16.75 2.27 2.27 0 0 1 .62 1.62 2.25 2.25 0 0 1-1.78 2.29l2 2.84h-1.56l-1.84-2.61H151v2.61h-1.32zm3.25 3.72c.94 0 1.54-.49 1.54-1.25 0-.8-.58-1.24-1.55-1.24H151v2.52zm13.39-3.77h1.22l3.3 7.55h-1.39l-.76-1.81h-3.55l-.77 1.81H163zm1.89 4.57l-1.3-3-1.29 3zm10.15-4.52h1.32v6.3h3.94v1.2h-5.26v-7.5zm12.37 6.41l.79-.94a3.48 3.48 0 0 0 2.37 1c.81 0 1.33-.39 1.33-.94 0-.54-.3-.82-1.69-1.15-1.6-.39-2.5-.86-2.5-2.24a2.29 2.29 0 0 1 2.56-2.17 4.15 4.15 0 0 1 2.72.94l-.71 1a3.41 3.41 0 0 0-2-.77c-.77 0-1.22.4-1.22.89 0 .58.34.84 1.79 1.18s2.4 1 2.4 2.2c0 1.4-1.1 2.24-2.68 2.24a4.62 4.62 0 0 1-3.13-1.2"/><path class="cls-2" d="M122.64 20.06l-3.09 7.47-.02.04.07-.03 13.2-6.27-10.16-1.21z"/><path class="cls-3" d="M119.54 27.53l3.1-7.47-.03-.01-13.21 6.27 10.14 1.21zM106.4 33.8l10.05 1.2 3.08-7.43-13.13 6.23z"/><path class="cls-4" d="M99.27 25.1l-3.1 7.47-.01.02.04-.01 13.18-6.25.01-.02-10.12-1.21z"/><path class="cls-5" d="M96.16 32.59l.01-.02-10.15-1.21-3.1 7.47.08.01 13.16-6.25z"/><path class="cls-6" d="M112.48 18.84l-3.09 7.47-.01.02.02-.02 13.21-6.26-10.13-1.21z"/><path class="cls-7" d="M139 6.34l-3.07 7.4 13.08-6.21L139 6.34z"/><path class="cls-8" d="M133.59 44.88l3.08-7.42-13.12 6.22 10.04 1.2z"/><path class="cls-4" d="M96.2 32.58l-.04.01-3.08 7.45.12.01 13.06-6.19.03-.08-10.09-1.2z"/><path class="cls-6" d="M109.4 26.32l-.02.01-3.09 7.45-.03.09.14-.07 13.13-6.23.01-.04-10.14-1.21z"/><path class="cls-9" d="M109.38 26.33L96.2 32.58l10.09 1.2 3.09-7.45z"/><path class="cls-10" d="M83 38.84l10.08 1.2 3.08-7.45L83 38.84z"/><path class="cls-2" d="M119.6 27.53l-.07.04-3.08 7.43-.01.01.03-.01 13.2-6.26-10.07-1.21z"/><path class="cls-8" d="M129.72 28.72l-.01.02 10.07 1.21 3.1-7.47h-.01l-13.15 6.24z"/><path class="cls-7" d="M128.82 36.48h-.01.01zm.89-7.74l-3.1 7.47 13.17-6.25v-.01l-10.07-1.21z"/><path class="cls-8" d="M126.61 36.21l10.08 1.21 3.09-7.46-13.17 6.25z"/><path class="cls-7" d="M123.51 43.68h.04l13.12-6.22.02-.04-10.08-1.21-3.1 7.47z"/><path class="cls-11" d="M62.7 36.41l-3.08 7.43 13.14-6.23-10.06-1.2z"/><path class="cls-12" d="M126.61 36.21l-13.2 6.26 10.1 1.21 3.1-7.47z"/><path class="cls-10" d="M46.42 50.09l13.13-6.22-10.05-1.2-3.08 7.42z"/><path class="cls-5" d="M62.7 36.41h-.01L49.5 42.66v.01l10.05 1.2.07-.03 3.08-7.43z"/><path class="cls-8" d="M139.04 6.23l-.19.09.15.02 10.01 1.19.06.01.02-.05L152.2 0l-13.16 6.23z"/><path class="cls-10" d="M62.69 36.41l-10.1-1.21-3.09 7.46 13.19-6.25z"/><path class="cls-12" d="M122.64 20.06l10.16 1.21 3.1-7.47-.09-.01-13.16 6.24-.01.03z"/><path class="cls-7" d="M132.8 21.27l-3.08 7.45 13.15-6.24-10.07-1.21z"/><path class="cls-8" d="M142.87 22.48l.01-.01 3.09-7.44-13.17 6.24 10.07 1.21z"/><path class="cls-12" d="M119.6 27.53l10.07 1.21h.04l.01-.02 3.08-7.45-13.2 6.26z"/><path class="cls-11" d="M85.98 31.35l-13.21 6.26 10.02 1.2.13.02 3.1-7.47.01-.03-.05.02z"/><path class="cls-6" d="M116.45 35l-10.05-1.2-.15.06-3.06 7.39.08.01 13.17-6.25.01-.01z"/><path class="cls-12" d="M116.47 35l10.14 1.21 3.1-7.47h-.04L116.47 35z"/><path class="cls-3" d="M103.27 41.26l10.08 1.2 3.09-7.45-13.17 6.25z"/><path class="cls-2" d="M116.44 35.01l-3.09 7.45.06.01 13.2-6.26L116.47 35l-.03.01z"/><path class="cls-7" d="M135.9 13.81l-3.1 7.46 13.17-6.24.01-.02-10.08-1.2z"/><path class="cls-9" d="M112.42 18.84l-13.13 6.21-.09.04.07.01 10.12 1.21 3.09-7.47h-.06z"/><path class="cls-10" d="M96.17 32.57l3.1-7.47-.07-.01-13.17 6.24-.01.03 10.15 1.21z"/><path class="cls-2" d="M124.85 20.32l.01-.02-.05.02h.04zm.88-7.73l-3.08 7.44 13.16-6.24-10.08-1.2z"/><path class="cls-12" d="M138.85 6.32l-13.08 6.2-.04.07 10.08 1.2.09.02.03-.07 3.07-7.4-.15-.02z"/><path class="cls-9" d="M93.2 40.05l9.99 1.2 3.06-7.38-13.05 6.18z"/><path class="cls-8" d="M145.97 15.01l3.1-7.47-.06-.01-13.08 6.21-.03.07 10.07 1.2z"/><path class="cls-3" d="M125.63 12.58L112.5 18.8l-.08.04h.06l10.13 1.21.04-.02 3.08-7.44.04-.07-.14.06z"/></g></g></svg>