<?xml version="1.0" encoding="utf-8"?>
<!-- Generator: Adobe Illustrator 18.0.0, SVG Export Plug-In . SVG Version: 6.00 Build 0)  -->
<!DOCTYPE svg PUBLIC "-//W3C//DTD SVG 1.1//EN" "http://www.w3.org/Graphics/SVG/1.1/DTD/svg11.dtd">
<svg version="1.1" id="Outlines" xmlns="http://www.w3.org/2000/svg" xmlns:xlink="http://www.w3.org/1999/xlink" x="0px" y="0px"
	 viewBox="12.8 3.8 40.2 40.2" enable-background="new 12.8 3.8 40.2 40.2" xml:space="preserve">
<g>
	
		<linearGradient id="SVGID_1_" gradientUnits="userSpaceOnUse" x1="60.0961" y1="32" x2="113.0933" y2="32" gradientTransform="matrix(-0.3855 0 0 -0.3855 66.442 41.4072)">
		<stop  offset="0" style="stop-color:#00B3F0"/>
		<stop  offset="1" style="stop-color:#0083B4"/>
	</linearGradient>
	<polygon fill="url(#SVGID_1_)" points="43.3,34 40.6,24.1 39.5,24.8 43.2,34 	"/>
	
		<linearGradient id="SVGID_2_" gradientUnits="userSpaceOnUse" x1="73.2333" y1="49.8185" x2="75.9793" y2="17.1417" gradientTransform="matrix(-0.3855 0 0 -0.3855 66.442 41.4072)">
		<stop  offset="0" style="stop-color:#00B3F0"/>
		<stop  offset="1" style="stop-color:#0083B4"/>
	</linearGradient>
	<polygon fill="url(#SVGID_2_)" points="39.5,24.8 38.4,21.9 36.6,23.3 38,25.6 	"/>
	
		<linearGradient id="SVGID_3_" gradientUnits="userSpaceOnUse" x1="65.4362" y1="49.1631" x2="67.6133" y2="23.2561" gradientTransform="matrix(-0.3855 0 0 -0.3855 66.442 41.4072)">
		<stop  offset="0" style="stop-color:#00B3F0"/>
		<stop  offset="1" style="stop-color:#004F78"/>
	</linearGradient>
	<polygon fill="url(#SVGID_3_)" points="43.2,33.9 43.2,34 39.5,24.8 38,25.6 	"/>
	
		<linearGradient id="SVGID_4_" gradientUnits="userSpaceOnUse" x1="85.6468" y1="62.4728" x2="86.4705" y2="18.8124" gradientTransform="matrix(-0.3855 0 0 -0.3855 66.442 41.4072)">
		<stop  offset="0.1101" style="stop-color:#2BC3EA"/>
		<stop  offset="1" style="stop-color:#0083B4"/>
	</linearGradient>
	<polygon fill="url(#SVGID_4_)" points="36.6,23.3 32.5,16.7 30.1,21 34.3,25.1 	"/>
	
		<linearGradient id="SVGID_5_" gradientUnits="userSpaceOnUse" x1="78.2428" y1="62.334" x2="78.8869" y2="28.1982" gradientTransform="matrix(-0.3855 0 0 -0.3855 66.442 41.4072)">
		<stop  offset="0" style="stop-color:#00B3F0"/>
		<stop  offset="1" style="stop-color:#005D86"/>
	</linearGradient>
	<polygon fill="url(#SVGID_5_)" points="35.9,26.8 38,25.6 36.6,23.3 34.3,25.1 	"/>
	
		<linearGradient id="SVGID_6_" gradientUnits="userSpaceOnUse" x1="69.1527" y1="62.1618" x2="69.9371" y2="20.5852" gradientTransform="matrix(-0.3855 0 0 -0.3855 66.442 41.4072)">
		<stop  offset="0" style="stop-color:#00B3F0"/>
		<stop  offset="0.9345" style="stop-color:#081F41"/>
	</linearGradient>
	<polyline fill="url(#SVGID_6_)" points="35.9,26.8 38,25.6 43.2,33.9 35.9,26.8 	"/>
	
		<linearGradient id="SVGID_7_" gradientUnits="userSpaceOnUse" x1="75.5657" y1="56.8971" x2="62.7655" y2="18.4965" gradientTransform="matrix(0.3855 0 0 -0.3855 0 41.4072)">
		<stop  offset="0" style="stop-color:#00B3F0"/>
		<stop  offset="1" style="stop-color:#006992"/>
	</linearGradient>
	<polygon fill="url(#SVGID_7_)" points="30.1,21 28.5,19.4 22.8,34 22.8,34 	"/>
	
		<linearGradient id="SVGID_8_" gradientUnits="userSpaceOnUse" x1="68.4066" y1="10.6423" x2="113.1559" y2="42.763" gradientTransform="matrix(-0.3855 0 0 -0.3855 66.442 41.4072)">
		<stop  offset="0" style="stop-color:#00B3F0"/>
		<stop  offset="0.8614" style="stop-color:#005D86"/>
	</linearGradient>
	<polygon fill="url(#SVGID_8_)" points="22.9,34 34.3,25.1 30.1,21 22.8,34 	"/>
	
		<linearGradient id="SVGID_9_" gradientUnits="userSpaceOnUse" x1="69.0694" y1="9.7159" x2="103.4597" y2="34.401" gradientTransform="matrix(-0.3855 0 0 -0.3855 66.442 41.4072)">
		<stop  offset="0" style="stop-color:#00B3F0"/>
		<stop  offset="1" style="stop-color:#081F41"/>
	</linearGradient>
	<polygon fill="url(#SVGID_9_)" points="35.9,26.8 34.3,25.1 22.9,34 23.2,33.9 	"/>
</g>
<linearGradient id="SVGID_10_" gradientUnits="userSpaceOnUse" x1="93.1" y1="38" x2="93.1" y2="38" gradientTransform="matrix(0.3855 0 0 -0.3855 0 41.4072)">
	<stop  offset="0" style="stop-color:#00B3F0"/>
	<stop  offset="0.9345" style="stop-color:#081F41"/>
</linearGradient>
<path fill="url(#SVGID_10_)" d="M35.9,26.8"/>
</svg>
