<?xml version="1.0" encoding="utf-8"?>
<!-- Generator: Adobe Illustrator 16.0.0, SVG Export Plug-In . SVG Version: 6.00 Build 0)  -->
<!DOCTYPE svg PUBLIC "-//W3C//DTD SVG 1.1//EN" "http://www.w3.org/Graphics/SVG/1.1/DTD/svg11.dtd">
<svg version="1.1" id="Layer_1" xmlns="http://www.w3.org/2000/svg" xmlns:xlink="http://www.w3.org/1999/xlink" x="0px" y="0px"
	 width="70.205px" height="110.266px" viewBox="0 0 70.205 110.266" enable-background="new 0 0 70.205 110.266"
	 xml:space="preserve">
<g>
	<path fill="#FFFFFF" d="M21.987,54.121c0.248,0,0.507,0.096,0.697,0.288l24.303,23.489c0.402,0.383,0.41,1.023,0.029,1.426
		c-0.384,0.4-1.024,0.41-1.426,0.027L21.288,55.863c-0.401-0.382-0.411-1.023-0.028-1.425
		C21.461,54.217,21.719,54.121,21.987,54.121z"/>
	<path fill="#FFFFFF" d="M46.289,30.633c0.269,0,0.526,0.105,0.728,0.306c0.382,0.402,0.373,1.043-0.029,1.426L22.685,55.853
		c-0.401,0.383-1.042,0.373-1.425-0.029c-0.383-0.402-0.373-1.042,0.028-1.425l24.303-23.479
		C45.781,30.729,46.04,30.633,46.289,30.633z"/>
</g>
</svg>
