<?xml version="1.0" encoding="utf-8"?>
<!-- Generator: Adobe Illustrator 16.0.0, SVG Export Plug-In . SVG Version: 6.00 Build 0)  -->
<!DOCTYPE svg PUBLIC "-//W3C//DTD SVG 1.1//EN" "http://www.w3.org/Graphics/SVG/1.1/DTD/svg11.dtd">
<svg version="1.1" id="Layer_1" xmlns="http://www.w3.org/2000/svg" xmlns:xlink="http://www.w3.org/1999/xlink" x="0px" y="0px"
	 width="70.205px" height="110.265px" viewBox="216.295 282.5 70.205 110.265"
	 enable-background="new 216.295 282.5 70.205 110.265" xml:space="preserve">
<g>
	<path fill="#FFFFFF" d="M223.522,335.292c0.516,0,1.052,0.199,1.449,0.596l50.45,48.762c0.835,0.795,0.854,2.125,0.061,2.96
		c-0.795,0.833-2.126,0.854-2.96,0.06l-50.451-48.762c-0.833-0.794-0.854-2.125-0.059-2.959
		C222.43,335.491,222.966,335.292,223.522,335.292z"/>
	<path fill="#FFFFFF" d="M273.973,286.53c0.557,0,1.092,0.219,1.51,0.635c0.794,0.835,0.774,2.165-0.061,2.96l-50.45,48.762
		c-0.834,0.794-2.165,0.775-2.959-0.06c-0.795-0.834-0.774-2.165,0.059-2.96l50.451-48.742
		C272.919,286.729,273.456,286.53,273.973,286.53z"/>
</g>
</svg>
