<?xml version="1.0" encoding="utf-8"?>
<!-- Generator: Adobe Illustrator 16.0.0, SVG Export Plug-In . SVG Version: 6.00 Build 0)  -->
<!DOCTYPE svg PUBLIC "-//W3C//DTD SVG 1.1//EN" "http://www.w3.org/Graphics/SVG/1.1/DTD/svg11.dtd">
<svg version="1.1" id="Layer_1" xmlns="http://www.w3.org/2000/svg" xmlns:xlink="http://www.w3.org/1999/xlink" x="0px" y="0px"
	 width="24px" height="24px" viewBox="0 0 24 24" enable-background="new 0 0 24 24" xml:space="preserve">
<path fill="#B6B6B6" d="M12,0C5.373,0,0,5.373,0,12s5.373,12,12,12s12-5.373,12-12S18.627,0,12,0z M12,18.25
	c-0.69,0-1.25-0.561-1.25-1.25s0.56-1.25,1.25-1.25c0.691,0,1.25,0.561,1.25,1.25S12.691,18.25,12,18.25z M13.961,12.322
	c-0.904,0.975-0.947,1.514-0.936,2.178h-2.004c-0.007-1.475,0.02-2.125,1.431-3.468c0.573-0.544,1.024-0.975,0.962-1.821
	c-0.059-0.805-0.73-1.226-1.365-1.226c-0.709,0-1.538,0.527-1.538,2.013h-2.01c0-2.4,1.409-3.95,3.59-3.95
	c1.036,0,1.942,0.339,2.55,0.955c0.57,0.578,0.865,1.372,0.854,2.298C15.479,10.684,14.639,11.592,13.961,12.322z"/>
</svg>
