<?xml version="1.0" encoding="utf-8"?>
<!-- Generator: Adobe Illustrator 16.0.0, SVG Export Plug-In . SVG Version: 6.00 Build 0)  -->
<!DOCTYPE svg PUBLIC "-//W3C//DTD SVG 1.1//EN" "http://www.w3.org/Graphics/SVG/1.1/DTD/svg11.dtd">
<svg version="1.1" id="Layer_1" xmlns="http://www.w3.org/2000/svg" xmlns:xlink="http://www.w3.org/1999/xlink" x="0px" y="0px"
	 width="70.205px" height="110.265px" viewBox="216.295 282.5 70.205 110.265"
	 enable-background="new 216.295 282.5 70.205 110.265" xml:space="preserve">
<g>
	<path fill="#FFFFFF" d="M274.973,339.488c-0.516,0-1.052-0.199-1.449-0.596l-50.45-48.762c-0.835-0.795-0.854-2.125-0.061-2.96
		c0.795-0.833,2.126-0.854,2.96-0.06l50.451,48.762c0.833,0.794,0.854,2.125,0.059,2.959
		C276.065,339.289,275.529,339.488,274.973,339.488z"/>
	<path fill="#FFFFFF" d="M224.522,388.25c-0.557,0-1.092-0.219-1.51-0.635c-0.794-0.835-0.774-2.165,0.061-2.96l50.45-48.762
		c0.834-0.794,2.165-0.775,2.959,0.06c0.795,0.834,0.774,2.165-0.059,2.96l-50.451,48.742
		C225.576,388.051,225.039,388.25,224.522,388.25z"/>
</g>
</svg>
